<svg xmlns="http://www.w3.org/2000/svg" width="32" height="32">
    <path style="stroke:none;fill-rule:nonzero;fill:#000;fill-opacity:1" d="M8 18.668c-.734 0-1.332.598-1.332 1.332v4c0 .734.598 1.332 1.332 1.332h4c.734 0 1.332-.598 1.332-1.332 0-.734-.598-1.332-1.332-1.332H9.332V20c0-.734-.598-1.332-1.332-1.332Zm0-5.336c.734 0 1.332-.598 1.332-1.332V9.332H12c.734 0 1.332-.598 1.332-1.332 0-.734-.598-1.332-1.332-1.332H8c-.734 0-1.332.598-1.332 1.332v4c0 .734.598 1.332 1.332 1.332Zm14.668 9.336H20c-.734 0-1.332.598-1.332 1.332 0 .734.598 1.332 1.332 1.332h4c.734 0 1.332-.598 1.332-1.332v-4c0-.734-.598-1.332-1.332-1.332-.734 0-1.332.598-1.332 1.332ZM18.668 8c0 .734.598 1.332 1.332 1.332h2.668V12c0 .734.598 1.332 1.332 1.332.734 0 1.332-.598 1.332-1.332V8c0-.734-.598-1.332-1.332-1.332h-4c-.734 0-1.332.598-1.332 1.332Zm0 0"/>
</svg>
