<svg xmlns="http://www.w3.org/2000/svg" width="32" height="32">
    <path style="stroke:none;fill-rule:nonzero;fill:#000;fill-opacity:1" d="M20 28h2.668v-2.668H20M25.332 12H28V9.332h-2.668M4 6.668v18.664C4 26.801 5.2 28 6.668 28H12v-2.668H6.668V6.668H12V4H6.668A2.674 2.674 0 0 0 4 6.668M25.332 4v2.668H28C28 5.199 26.8 4 25.332 4M14.668 30.668h2.664V1.332h-2.664m10.664 21.336H28V20h-2.668M20 6.668h2.668V4H20m5.332 13.332H28v-2.664h-2.668m0 13.332C26.801 28 28 26.8 28 25.332h-2.668Zm0 0"/>
</svg>
