<svg xmlns="http://www.w3.org/2000/svg" width="32" height="32">
    <path style="stroke:none;fill-rule:nonzero;fill:#000;fill-opacity:1" d="M4 20v2.668h2.668V20M20 25.332V28h2.668v-2.668M25.332 4H6.668A2.674 2.674 0 0 0 4 6.668V12h2.668V6.668h18.664V12H28V6.668C28 5.199 26.8 4 25.332 4M28 25.332h-2.668V28C26.801 28 28 26.8 28 25.332M1.332 14.668v2.664h29.336v-2.664M9.332 25.332V28H12v-2.668M25.332 20v2.668H28V20m-13.332 5.332V28h2.664v-2.668M4 25.332C4 26.801 5.2 28 6.668 28v-2.668Zm0 0"/>
</svg>
